:SAMPLES-PER-SECOND 30
:FULLY-SPECIFIED
:DEGREES
65
root  -21.0542 17.9595 -1.09785 -107.665 80.9595 -151.607
RightUpLeg  -60.8403 1.24005 5.54797
RightLeg  123.46 0.203759 16.6509
RightFoot  7.96959 0.954058 -5.16256
RightToes  1.86264e-009 -3.18055e-015 8.94531e-016
Spine  46.8229 -1.89249 6.05176
Spine1  -14.2164 0.429526 7.82892
HEad  -58.4043 3.17015 -1.38806
LeftShoulder1  0 -2.69403e-036 -1.28585e-037
LeftArm  0.294049 -41.0981 -99.6564
LeftForeArm  22.9485 -0.103397 1.1194
LeftHand  -3.62507 -0.532554 44.8598
RightShoulder  -2.48481e-017 0 -8.08114e-019
RightArm  17.5261 3.13503 71.247
RightForeArm  -5.43879 39.5922 -37.7035
RightHand  5.14105 -17.0888 -34.0863
LeftUpLeg  -9.67738 -18.0891 6.07906
LeftLeg  71.6427 -16.0413 -12.3874
LeftFoot  -25.6786 0.0547989 1.21347
LeftToes  -3.27418e-010 -1.10613e-010 -1.08532e-012
66
root  -20.15 17.7997 -0.879616 -96.2876 78.8437 -141.639
RightUpLeg  -59.3021 3.46733 8.56374
RightLeg  121.443 0.346083 17.6622
RightFoot  7.09226 0.517761 -2.8965
RightToes  1.86264e-009 -3.18055e-015 8.94531e-016
Spine  46.5567 -2.14991 9.83552
Spine1  -16.7651 2.13052 2.5946
HEad  -57.2101 1.27486 0.886667
LeftShoulder1  0 -2.69403e-036 -1.28585e-037
LeftArm  0.147343 -37.6038 -101.692
LeftForeArm  26.6965 -0.480067 0.210553
LeftHand  -3.78872 -0.633392 45.9687
RightShoulder  -2.48481e-017 0 -8.08114e-019
RightArm  15.449 9.50156 70.0698
RightForeArm  -4.39638 38.2612 -36.411
RightHand  5.19808 -17.2096 -34.1309
LeftUpLeg  -8.74076 -15.7114 9.72508
LeftLeg  68.026 -16.6041 -11.9739
LeftFoot  -24.0118 0.116902 2.06068
LeftToes  -3.27418e-010 -1.10613e-010 -1.08532e-012
67
root  -19.3307 17.7872 -0.662509 -86.0891 76.532 -132.478
RightUpLeg  -58.0862 6.22485 11.26
RightLeg  120.25 0.693317 17.9091
RightFoot  2.44796 0.202962 -1.46993
RightToes  1.86264e-009 -3.18055e-015 8.94531e-016
Spine  47.3545 -2.6004 13.9083
Spine1  -19.2234 3.65372 -3.22575
HEad  -56.6692 -0.721065 2.43489
LeftShoulder1  0 -2.69403e-036 -1.28585e-037
LeftArm  -0.377829 -34.5967 -102.794
LeftForeArm  30.3005 -0.796242 -0.481562
LeftHand  -3.92563 -0.715296 46.886
RightShoulder  -2.48481e-017 0 -8.08114e-019
RightArm  14.0082 17.1684 69.2965
RightForeArm  -3.43381 35.0858 -33.4832
RightHand  5.1239 -17.1121 -33.8408
LeftUpLeg  -7.82564 -13.8858 12.9071
LeftLeg  64.9357 -17.1761 -11.883
LeftFoot  -20.7981 0.07627 2.14917
LeftToes  -3.27418e-010 -1.10613e-010 -1.08532e-012
68
root  -18.5931 17.8729 -0.408185 -81.0079 75.9345 -129.117
RightUpLeg  -58.3459 8.4619 11.5179
RightLeg  119.823 0.719189 18.156
RightFoot  -5.24442 0.081464 -1.24146
RightToes  1.86264e-009 -3.18055e-015 8.94531e-016
Spine  47.1697 -1.8087 15.4111
Spine1  -20.2556 5.0322 -5.55935
HEad  -57.3764 -3.31893 2.42326
LeftShoulder1  0 -2.69403e-036 -1.28585e-037
LeftArm  -0.869726 -32.7181 -103.996
LeftForeArm  32.9626 -1.08343 -1.15899
LeftHand  -4.01943 -0.782172 47.4318
RightShoulder  -2.48481e-017 0 -8.08114e-019
RightArm  14.2793 25.6262 67.5775
RightForeArm  -2.62711 30.2779 -29.5659
RightHand  4.88248 -16.823 -32.7441
LeftUpLeg  -8.17595 -13.8721 13.7733
LeftLeg  62.294 -17.6287 -11.7084
LeftFoot  -16.9006 -0.0230101 0.848266
LeftToes  -3.27418e-010 -1.10613e-010 -1.08532e-012
